<?xml version="1.0" encoding="utf-8"?>
<!-- Generator: Adobe Illustrator 16.0.0, SVG Export Plug-In . SVG Version: 6.00 Build 0)  -->
<!DOCTYPE svg PUBLIC "-//W3C//DTD SVG 1.1//EN" "http://www.w3.org/Graphics/SVG/1.1/DTD/svg11.dtd">
<svg version="1.1" id="Layer_1" xmlns="http://www.w3.org/2000/svg" xmlns:xlink="http://www.w3.org/1999/xlink" x="0px" y="0px"
	 width="481.118px" height="165.259px" viewBox="57.082 338.43 481.118 165.259"
	 enable-background="new 57.082 338.43 481.118 165.259" xml:space="preserve">
<g>
	<g>
		<rect x="57.081" y="338.201" fill="#FFCE06" width="23.632" height="23.691"/>
		<g>
			<rect x="92.767" y="419.165" fill="#4870B7" width="13.756" height="29.52"/>
			<rect x="109.569" y="411.412" fill="#4870B7" width="13.756" height="37.273"/>
			<rect x="126.369" y="403.681" fill="#4870B7" width="13.758" height="45.005"/>
			<rect x="143.169" y="395.928" fill="#4870B7" width="13.756" height="52.758"/>
			<rect x="159.97" y="388.174" fill="#4870B7" width="13.758" height="60.511"/>
		</g>
		<g>
			<g>
				<path fill="#FFCE06" d="M80.714,452.363c-0.102-0.709-0.171-1.426-0.171-2.162v-73.117c0-0.547,0.032-1.089,0.091-1.623H57.082
					v91.311c0,12.193,9.887,22.081,22.081,22.081h1.552L80.714,452.363L80.714,452.363z"/>
				<path fill="#FFCE06" d="M185.423,338.43H94.112v23.552c0.533-0.058,1.074-0.089,1.624-0.089h73.115
					c8.393,0,15.191,6.8,15.191,15.191v73.117c0,8.392-6.801,15.191-15.191,15.191H95.736c-0.561,0-1.113-0.035-1.66-0.095v23.556
					h91.346c12.195,0,22.08-9.887,22.08-22.081v-106.26C207.503,348.318,197.619,338.43,185.423,338.43z"/>
			</g>
		</g>
		<polygon fill="#FFCE06" points="156.5,503.689 140.746,487.933 172.257,487.933 		"/>
	</g>
	<g>
		<g>
			<path fill="#4870B7" d="M274.077,411.248h-3.724l-5.517-14.895l-4.137-13.238l-4.275,13.309l-5.517,14.824h-3.724l-12.136-34.063
				h3.724l10.274,30.133l10.412-30.133h2.414l10.343,30.133l10.205-30.133h3.724L274.077,411.248z"/>
			<path fill="#4870B7" d="M290.08,394.285c0-10.824,7.723-17.721,17.308-17.721s17.308,6.896,17.308,17.721
				c0,10.826-7.723,17.445-17.308,17.445S290.08,405.111,290.08,394.285z M321.384,394.285c0-8.826-6.275-14.549-13.998-14.549
				s-13.998,5.723-13.998,14.549s6.274,14.137,13.998,14.137C315.109,408.421,321.384,403.111,321.384,394.285z"/>
			<path fill="#4870B7" d="M335.663,377.185l0.138,6.068c2.138-4.621,6.964-6.414,11.308-6.414c2.551-0.068,5.035,0.621,7.311,2
				l-1.518,2.758c-1.793-1.104-3.791-1.586-5.791-1.586c-6.344,0.07-11.239,5.172-11.239,11.379v19.857h-3.38v-34.063H335.663
				L335.663,377.185z"/>
			<path fill="#4870B7" d="M362.834,362.98v29.1l16.066-14.895h4.481v0.137l-17.239,15.932l19.238,17.789v0.207h-4.275
				l-18.271-16.688v16.688h-3.311v-48.27H362.834z"/>
			<path fill="#4870B7" d="M413.104,383.39c-3.447-3.033-6.826-3.586-10.619-3.586c-5.309-0.068-10.412,1.932-10.273,6.275
				c0.139,4.551,6.068,5.447,10.344,6.207c6.066,1.033,14.412,2.066,14.066,9.998c-0.207,7.516-8,9.516-13.998,9.516
				c-6,0-11.93-2.275-14.895-6.826l2.482-2.207c2.826,4.068,7.93,5.791,12.48,5.791c4.137,0,10.412-1.102,10.619-6.479
				c0.139-4.896-5.518-5.861-11.104-6.76c-6.617-1.104-13.169-2.344-13.238-9.172c-0.068-6.688,6.621-9.584,13.516-9.516
				c4.965,0,9.309,1.381,12.688,4.553L413.104,383.39z"/>
			<path fill="#4870B7" d="M427.381,362.98v20.549c2.758-4.895,7.516-6.758,12.273-6.826c9.516,0,14.273,6.139,14.273,15.031v19.516
				h-3.311v-19.516c0-7.031-3.311-11.791-10.965-11.791c-7.172,0-12.137,5.518-12.137,12.619v18.688h-3.377v-48.27H427.381z"/>
			<path fill="#4870B7" d="M461.172,394.285c0-10.824,7.723-17.721,17.307-17.721c9.586,0,17.309,6.896,17.309,17.721
				c0,10.826-7.723,17.445-17.309,17.445C468.895,411.732,461.172,405.111,461.172,394.285z M492.477,394.285
				c0-8.826-6.273-14.549-13.998-14.549c-7.723,0-13.996,5.723-13.996,14.549s6.273,14.137,13.996,14.137
				C486.204,408.421,492.477,403.111,492.477,394.285z"/>
			<path fill="#4870B7" d="M503.584,425.453v-48.268h3.311v8.066c2.688-5.172,8.137-8.551,14.756-8.551
				c9.24,0.346,16.549,6.551,16.549,17.516c0,11.445-7.723,17.652-17.309,17.652c-5.791,0-11.17-2.828-14.066-8.482v22.066H503.584
				L503.584,425.453z M534.821,394.216c0-9.584-6.207-14.273-13.93-14.273c-7.932,0-13.791,6-13.791,14.344s6,14.344,13.791,14.344
				C528.614,408.628,534.821,403.8,534.821,394.216z"/>
		</g>
		<g>
			<path fill="#4870B7" d="M259.512,429.859v30.396h-4.958l-0.348-2.957c-1.652,2.564-4.305,3.436-6.915,3.436
				c-6.306,0-11.046-4.174-11.046-11.219c0-7.395,4.653-11.221,10.916-11.221c2.261,0,5.784,1.219,7.045,3.436v-11.871H259.512z
				 M241.552,449.515c0,3.738,2.696,6.305,6.088,6.305c3.349,0,6.219-2.436,6.219-6.305c0-3.74-2.87-6.264-6.219-6.264
				C244.249,443.251,241.552,445.644,241.552,449.515z"/>
			<path fill="#4870B7" d="M269.125,451.427c0.348,2.654,2.653,4.566,6.393,4.566c1.957,0,4.523-0.738,5.74-2l3.392,3.348
				c-2.261,2.35-5.958,3.479-9.219,3.479c-7.393,0-11.785-4.564-11.785-11.438c0-6.521,4.436-11.219,11.394-11.219
				c7.176,0,11.655,4.436,10.829,13.264H269.125L269.125,451.427z M280.778,447.035c-0.348-2.783-2.522-4.174-5.566-4.174
				c-2.87,0-5.219,1.391-6.001,4.174H280.778z"/>
			<path fill="#4870B7" d="M307.699,432.771c0,4.133-6.262,4.133-6.262,0C301.437,428.64,307.699,428.64,307.699,432.771z
				 M301.916,438.73v21.525h5.307V438.73H301.916L301.916,438.73z"/>
			<path fill="#4870B7" d="M327.791,460.255v-11.219c0-3.264-1.783-5.74-5.176-5.74c-3.262,0-5.479,2.738-5.479,6v10.959h-5.262
				v-21.482h4.74l0.348,2.914c2.174-2.131,4.35-3.219,7.045-3.219c5.044,0,9.089,3.783,9.089,10.523v11.264H327.791z"/>
			<path fill="#4870B7" d="M339.403,460.255v-16.48h-4v-4.652h4v-1.438c0-5.74,3.871-8.393,8.177-8.393
				c1.87,0,3.827,0.607,5.565,1.738l-1.957,3.957c-1.131-0.738-2.174-1.129-3.262-1.129c-1.826,0-3.218,1.217-3.218,3.826v1.436
				h6.306v4.652h-6.306v16.482H339.403L339.403,460.255z"/>
			<path fill="#4870B7" d="M374.716,449.558c0,6.176-4.218,11.176-11.176,11.176s-11.134-5-11.134-11.176
				c0-6.133,4.263-11.176,11.09-11.176C370.323,438.382,374.716,443.425,374.716,449.558z M357.713,449.558
				c0,3.262,1.957,6.305,5.827,6.305s5.827-3.043,5.827-6.305c0-3.219-2.262-6.35-5.827-6.35
				C359.713,443.208,357.713,446.339,357.713,449.558z"/>
			<path fill="#4870B7" d="M383.286,438.816l0.391,2.48c1.653-2.652,3.871-3.045,6.045-3.045c2.219,0,4.35,0.871,5.523,2.045
				l-2.393,4.607c-1.086-0.912-2.086-1.391-3.826-1.391c-2.783,0-5.35,1.479-5.35,5.438v11.307h-5.305v-21.439h4.914V438.816z"/>
			<path fill="#4870B7" d="M411.508,460.255v-11.48c0-2.826-1.479-5.393-4.393-5.393c-2.869,0-4.564,2.564-4.564,5.393v11.48h-5.307
				v-21.482h4.914l0.393,2.609c1.131-2.174,3.607-2.957,5.652-2.957c2.564,0,5.131,1.043,6.35,4
				c1.914-3.043,4.393-3.914,7.176-3.914c6.088,0,9.088,3.74,9.088,10.178v11.566h-5.305v-11.566c0-2.828-1.174-5.219-4.045-5.219
				c-2.869,0-4.652,2.479-4.652,5.305v11.48H411.508z"/>
			<path fill="#4870B7" d="M453.042,441.773l0.176-2.957h5.088v21.439h-5.002l-0.262-3.131c-1.217,2.521-4.564,3.74-6.957,3.783
				c-6.35,0.043-11.047-3.869-11.047-11.395c0-7.393,4.914-11.264,11.178-11.219C449.084,438.294,451.825,439.642,453.042,441.773z
				 M446.692,443.035c-3.521,0-6.348,2.393-6.348,6.479c0,4.088,2.824,6.523,6.348,6.523
				C455.042,456.037,455.042,443.035,446.692,443.035z M452.737,429.38h-6.262l-3.219,5.914v0.26h4.697l4.783-5.957V429.38
				L452.737,429.38z"/>
			<path fill="#4870B7" d="M469.352,432.771v6.09h5.914v4.564h-5.959v9.264c0,2.045,1.131,3.045,2.783,3.045
				c0.826,0,1.783-0.262,2.564-0.652l1.48,4.521c-1.523,0.609-2.783,0.871-4.395,0.914c-4.652,0.174-7.697-2.479-7.697-7.828v-9.264
				h-4v-4.564h4v-5.523L469.352,432.771z"/>
			<path fill="#4870B7" d="M485.006,432.771c0,4.133-6.264,4.133-6.264,0C478.745,428.64,485.006,428.64,485.006,432.771z
				 M479.223,438.73v21.525h5.305V438.73H479.223L479.223,438.73z"/>
			<path fill="#4870B7" d="M507.708,457.517c-2.479,2.436-5.088,3.393-8.262,3.393c-6.219,0-11.395-3.74-11.395-11.352
				s5.176-11.35,11.395-11.35c3.043,0,5.393,0.869,7.74,3.174l-3.348,3.521c-1.264-1.131-2.828-1.695-4.307-1.695
				c-3.564,0-6.176,2.609-6.176,6.35c0,4.088,2.783,6.262,6.088,6.262c1.697,0,3.393-0.479,4.697-1.781L507.708,457.517z"/>
			<path fill="#4870B7" d="M527.061,438.816h5.088v21.439h-5.002l-0.26-3.131c-1.219,2.521-4.566,3.74-6.959,3.783
				c-6.35,0.043-11.045-3.869-11.045-11.395c0-7.393,4.914-11.264,11.176-11.219c2.869,0,5.609,1.348,6.828,3.479L527.061,438.816z
				 M514.188,449.515c0,4.088,2.826,6.521,6.35,6.521c8.35,0,8.35-13.002,0-13.002C517.014,443.035,514.188,445.427,514.188,449.515
				z"/>
		</g>
	</g>
</g>
</svg>
