<?xml version="1.0" encoding="UTF-8" standalone="no"?>
<!-- Generator: Adobe Illustrator 16.0.0, SVG Export Plug-In . SVG Version: 6.00 Build 0)  -->

<svg
   xmlns:dc="http://purl.org/dc/elements/1.1/"
   xmlns:cc="http://creativecommons.org/ns#"
   xmlns:rdf="http://www.w3.org/1999/02/22-rdf-syntax-ns#"
   xmlns:svg="http://www.w3.org/2000/svg"
   xmlns="http://www.w3.org/2000/svg"
   xmlns:sodipodi="http://sodipodi.sourceforge.net/DTD/sodipodi-0.dtd"
   xmlns:inkscape="http://www.inkscape.org/namespaces/inkscape"
   version="1.1"
   id="Layer_1"
   x="0px"
   y="0px"
   width="323.15302"
   height="388.12601"
   viewBox="0 0 323.15299 388.126"
   enable-background="new 0 0 595.28 841.89"
   xml:space="preserve"
   inkscape:version="0.48.4 r9939"
   sodipodi:docname="branding_large.svg"><metadata
     id="metadata93"><rdf:RDF><cc:Work
         rdf:about=""><dc:format>image/svg+xml</dc:format><dc:type
           rdf:resource="http://purl.org/dc/dcmitype/StillImage" /></cc:Work></rdf:RDF></metadata><defs
     id="defs91" /><sodipodi:namedview
     pagecolor="#ffffff"
     bordercolor="#666666"
     borderopacity="1"
     objecttolerance="10"
     gridtolerance="10"
     guidetolerance="10"
     inkscape:pageopacity="0"
     inkscape:pageshadow="2"
     inkscape:window-width="1366"
     inkscape:window-height="744"
     id="namedview89"
     showgrid="false"
     height="840.89px"
     fit-margin-top="10"
     fit-margin-left="10"
     fit-margin-right="10"
     fit-margin-bottom="10"
     inkscape:zoom="0.5606433"
     inkscape:cx="-44.33293"
     inkscape:cy="77.759885"
     inkscape:window-x="0"
     inkscape:window-y="24"
     inkscape:window-maximized="1"
     inkscape:current-layer="Layer_1" /><g
     id="g3"
     transform="translate(-130.35601,-146.812)"><rect
       x="216.534"
       y="156.812"
       width="23.632"
       height="23.691"
       id="rect5"
       style="fill:#ffce06" /><g
       id="g7"><rect
         x="252.22"
         y="237.776"
         width="13.756"
         height="29.52"
         id="rect9"
         style="fill:#4870b7" /><rect
         x="269.022"
         y="230.02299"
         width="13.756"
         height="37.272999"
         id="rect11"
         style="fill:#4870b7" /><rect
         x="285.82199"
         y="222.29201"
         width="13.757"
         height="45.005001"
         id="rect13"
         style="fill:#4870b7" /><rect
         x="302.62299"
         y="214.539"
         width="13.756"
         height="52.757999"
         id="rect15"
         style="fill:#4870b7" /><rect
         x="319.423"
         y="206.785"
         width="13.759"
         height="60.511002"
         id="rect17"
         style="fill:#4870b7" /></g><g
       id="g19"><g
         id="g21"><path
           d="m 240.167,270.973 c -0.102,-0.708 -0.171,-1.425 -0.171,-2.161 v -73.117 c 0,-0.547 0.032,-1.089 0.091,-1.623 h -23.552 v 91.311 c 0,12.193 9.887,22.081 22.081,22.081 h 1.552 v -36.491 z"
           id="path23"
           inkscape:connector-curvature="0"
           style="fill:#ffce06" /><path
           d="m 344.876,157.041 h -91.311 v 23.552 c 0.533,-0.058 1.074,-0.089 1.624,-0.089 h 73.115 c 8.392,0 15.191,6.8 15.191,15.191 v 73.117 c 0,8.391 -6.8,15.191 -15.191,15.191 h -73.115 c -0.561,0 -1.113,-0.035 -1.66,-0.095 v 23.556 h 91.346 c 12.195,0 22.08,-9.887 22.08,-22.081 v -106.26 c 0.001,-12.194 -9.884,-22.082 -22.079,-22.082 z"
           id="path25"
           inkscape:connector-curvature="0"
           style="fill:#ffce06" /></g></g><polygon
       points="315.953,322.3 300.198,306.544 331.711,306.544 "
       id="polygon27"
       style="fill:#ffce06" /></g><g
     id="g29"
     transform="translate(-130.35601,-146.812)"><g
       id="g31"><path
         d="m 179.386,475.277 h -3.724 l -5.517,-14.894 -4.137,-13.239 -4.275,13.309 -5.517,14.824 h -3.724 l -12.136,-34.062 h 3.724 l 10.274,30.133 10.412,-30.133 h 2.414 l 10.343,30.133 10.205,-30.133 h 3.724 l -12.066,34.062 z"
         id="path33"
         inkscape:connector-curvature="0"
         style="fill:#4870b7" /><path
         d="m 195.389,458.314 c 0,-10.825 7.723,-17.721 17.308,-17.721 9.585,0 17.308,6.896 17.308,17.721 0,10.826 -7.723,17.446 -17.308,17.446 -9.585,0 -17.308,-6.619 -17.308,-17.446 z m 31.305,0 c 0,-8.826 -6.275,-14.549 -13.998,-14.549 -7.723,0 -13.998,5.723 -13.998,14.549 0,8.826 6.274,14.137 13.998,14.137 7.723,0 13.998,-5.31 13.998,-14.137 z"
         id="path35"
         inkscape:connector-curvature="0"
         style="fill:#4870b7" /><path
         d="m 240.972,441.215 0.138,6.067 c 2.137,-4.62 6.964,-6.413 11.308,-6.413 2.551,-0.068 5.034,0.621 7.31,2 l -1.517,2.758 c -1.793,-1.104 -3.792,-1.586 -5.792,-1.586 -6.344,0.069 -11.239,5.172 -11.239,11.378 v 19.858 h -3.38 v -34.062 h 3.172 z"
         id="path37"
         inkscape:connector-curvature="0"
         style="fill:#4870b7" /><path
         d="m 268.144,427.01 v 29.099 l 16.066,-14.894 h 4.482 v 0.137 l -17.239,15.93 19.238,17.789 v 0.207 h -4.275 l -18.272,-16.687 v 16.687 h -3.31 V 427.01 h 3.31 z"
         id="path39"
         inkscape:connector-curvature="0"
         style="fill:#4870b7" /><path
         d="m 318.414,447.42 c -3.448,-3.033 -6.827,-3.586 -10.619,-3.586 -5.31,-0.068 -10.413,1.932 -10.274,6.275 0.138,4.551 6.068,5.447 10.343,6.206 6.068,1.034 14.412,2.068 14.067,9.999 -0.207,7.516 -7.999,9.516 -13.998,9.516 -5.999,0 -11.929,-2.275 -14.894,-6.827 l 2.482,-2.206 c 2.827,4.068 7.929,5.791 12.481,5.791 4.137,0 10.412,-1.103 10.618,-6.48 0.139,-4.896 -5.516,-5.861 -11.102,-6.758 -6.619,-1.104 -13.17,-2.345 -13.239,-9.172 -0.069,-6.688 6.62,-9.584 13.515,-9.516 4.965,0 9.309,1.38 12.688,4.552 l -2.068,2.206 z"
         id="path41"
         inkscape:connector-curvature="0"
         style="fill:#4870b7" /><path
         d="m 332.69,427.01 v 20.549 c 2.759,-4.896 7.517,-6.758 12.274,-6.827 9.516,0 14.273,6.138 14.273,15.032 v 19.514 h -3.31 v -19.514 c 0,-7.033 -3.311,-11.791 -10.964,-11.791 -7.172,0 -12.137,5.516 -12.137,12.619 v 18.686 h -3.378 V 427.01 h 3.242 z"
         id="path43"
         inkscape:connector-curvature="0"
         style="fill:#4870b7" /><path
         d="m 366.481,458.314 c 0,-10.825 7.724,-17.721 17.308,-17.721 9.585,0 17.308,6.896 17.308,17.721 0,10.826 -7.723,17.446 -17.308,17.446 -9.584,0.001 -17.308,-6.619 -17.308,-17.446 z m 31.306,0 c 0,-8.826 -6.274,-14.549 -13.998,-14.549 -7.723,0 -13.997,5.723 -13.997,14.549 0,8.826 6.274,14.137 13.997,14.137 7.724,0 13.998,-5.31 13.998,-14.137 z"
         id="path45"
         inkscape:connector-curvature="0"
         style="fill:#4870b7" /><path
         d="m 408.894,489.482 v -48.268 h 3.31 v 8.067 c 2.689,-5.172 8.137,-8.551 14.756,-8.551 9.24,0.345 16.549,6.551 16.549,17.515 0,11.446 -7.723,17.652 -17.308,17.652 -5.792,0 -11.17,-2.827 -14.066,-8.481 v 22.065 h -3.241 z m 31.236,-31.236 c 0,-9.584 -6.206,-14.273 -13.93,-14.273 -7.93,0 -13.79,5.999 -13.79,14.342 0,8.344 5.999,14.344 13.79,14.344 7.724,-10e-4 13.93,-4.829 13.93,-14.413 z"
         id="path47"
         inkscape:connector-curvature="0"
         style="fill:#4870b7" /></g><g
       id="g49"><path
         d="m 164.822,493.888 v 30.397 h -4.958 l -0.348,-2.957 c -1.652,2.565 -4.305,3.436 -6.915,3.436 -6.306,0 -11.046,-4.175 -11.046,-11.22 0,-7.394 4.653,-11.22 10.916,-11.22 2.261,0 5.784,1.218 7.045,3.436 v -11.872 h 5.306 z m -17.96,19.656 c 0,3.739 2.696,6.306 6.088,6.306 3.349,0 6.219,-2.436 6.219,-6.306 0,-3.74 -2.87,-6.263 -6.219,-6.263 -3.392,0 -6.088,2.393 -6.088,6.263 z"
         id="path51"
         inkscape:connector-curvature="0"
         style="fill:#4870b7" /><path
         d="m 174.434,515.457 c 0.348,2.653 2.653,4.566 6.393,4.566 1.957,0 4.523,-0.739 5.74,-2 l 3.392,3.348 c -2.261,2.349 -5.958,3.479 -9.219,3.479 -7.393,0 -11.785,-4.566 -11.785,-11.438 0,-6.522 4.436,-11.22 11.394,-11.22 7.176,0 11.655,4.436 10.829,13.264 h -16.744 z m 11.654,-4.393 c -0.348,-2.783 -2.522,-4.174 -5.566,-4.174 -2.87,0 -5.219,1.391 -6.001,4.174 h 11.567 z"
         id="path53"
         inkscape:connector-curvature="0"
         style="fill:#4870b7" /><path
         d="m 213.009,496.801 c 0,4.132 -6.262,4.132 -6.262,0 0,-4.131 6.262,-4.131 6.262,0 z m -5.784,5.958 v 21.526 h 5.306 v -21.526 h -5.306 z"
         id="path55"
         inkscape:connector-curvature="0"
         style="fill:#4870b7" /><path
         d="m 233.1,524.285 v -11.22 c 0,-3.262 -1.783,-5.74 -5.175,-5.74 -3.262,0 -5.479,2.739 -5.479,6.001 v 10.959 h -5.262 v -21.482 h 4.74 l 0.348,2.913 c 2.174,-2.131 4.349,-3.218 7.045,-3.218 5.044,0 9.089,3.783 9.089,10.523 v 11.264 H 233.1 z"
         id="path57"
         inkscape:connector-curvature="0"
         style="fill:#4870b7" /><path
         d="m 244.713,524.285 v -16.481 h -4.001 v -4.653 h 4.001 v -1.436 c 0,-5.74 3.871,-8.393 8.176,-8.393 1.87,0 3.827,0.608 5.566,1.739 l -1.957,3.957 c -1.131,-0.739 -2.174,-1.13 -3.262,-1.13 -1.826,0 -3.218,1.217 -3.218,3.826 v 1.436 h 6.306 v 4.653 h -6.306 v 16.481 h -5.305 z"
         id="path59"
         inkscape:connector-curvature="0"
         style="fill:#4870b7" /><path
         d="m 280.026,513.587 c 0,6.176 -4.218,11.177 -11.176,11.177 -6.958,0 -11.133,-5.001 -11.133,-11.177 0,-6.132 4.262,-11.176 11.089,-11.176 6.827,0 11.22,5.044 11.22,11.176 z m -17.003,0 c 0,3.262 1.957,6.306 5.827,6.306 3.87,0 5.827,-3.044 5.827,-6.306 0,-3.218 -2.261,-6.349 -5.827,-6.349 -3.827,0 -5.827,3.131 -5.827,6.349 z"
         id="path61"
         inkscape:connector-curvature="0"
         style="fill:#4870b7" /><path
         d="m 288.595,502.846 0.391,2.479 c 1.653,-2.652 3.871,-3.044 6.045,-3.044 2.218,0 4.349,0.87 5.523,2.044 l -2.392,4.609 c -1.087,-0.913 -2.087,-1.392 -3.827,-1.392 -2.783,0 -5.349,1.479 -5.349,5.437 v 11.307 h -5.305 v -21.439 h 4.914 z"
         id="path63"
         inkscape:connector-curvature="0"
         style="fill:#4870b7" /><path
         d="m 316.818,524.285 v -11.48 c 0,-2.827 -1.479,-5.393 -4.392,-5.393 -2.87,0 -4.566,2.565 -4.566,5.393 v 11.48 h -5.306 v -21.482 h 4.914 l 0.392,2.608 c 1.131,-2.174 3.609,-2.957 5.653,-2.957 2.565,0 5.132,1.044 6.35,4.001 1.913,-3.044 4.392,-3.914 7.175,-3.914 6.089,0 9.089,3.74 9.089,10.177 v 11.567 h -5.305 v -11.567 c 0,-2.827 -1.175,-5.219 -4.045,-5.219 -2.87,0 -4.653,2.479 -4.653,5.306 v 11.48 h -5.306 z"
         id="path65"
         inkscape:connector-curvature="0"
         style="fill:#4870b7" /><path
         d="m 358.352,505.803 0.174,-2.957 h 5.088 v 21.439 h -5.001 l -0.261,-3.131 c -1.218,2.522 -4.566,3.739 -6.958,3.783 -6.35,0.043 -11.046,-3.87 -11.046,-11.394 0,-7.394 4.914,-11.264 11.176,-11.22 2.871,0.001 5.61,1.349 6.828,3.48 z m -6.35,1.261 c -3.522,0 -6.349,2.392 -6.349,6.479 0,4.087 2.826,6.522 6.349,6.522 8.35,10e-4 8.35,-13.001 0,-13.001 z m 6.045,-13.655 h -6.262 l -3.219,5.914 v 0.261 h 4.697 l 4.783,-5.958 v -0.217 z"
         id="path67"
         inkscape:connector-curvature="0"
         style="fill:#4870b7" /><path
         d="m 374.661,496.801 v 6.089 h 5.914 v 4.565 h -5.958 v 9.264 c 0,2.044 1.131,3.044 2.783,3.044 0.826,0 1.783,-0.261 2.565,-0.652 l 1.479,4.522 c -1.522,0.608 -2.783,0.87 -4.393,0.913 -4.653,0.174 -7.697,-2.479 -7.697,-7.827 v -9.264 h -4.001 v -4.565 h 4.001 v -5.523 l 5.307,-0.566 z"
         id="path69"
         inkscape:connector-curvature="0"
         style="fill:#4870b7" /><path
         d="m 390.316,496.801 c 0,4.132 -6.263,4.132 -6.263,0 10e-4,-4.131 6.263,-4.131 6.263,0 z m -5.784,5.958 v 21.526 h 5.306 v -21.526 h -5.306 z"
         id="path71"
         inkscape:connector-curvature="0"
         style="fill:#4870b7" /><path
         d="m 413.018,521.546 c -2.479,2.435 -5.088,3.392 -8.263,3.392 -6.219,0 -11.394,-3.74 -11.394,-11.351 0,-7.611 5.175,-11.35 11.394,-11.35 3.044,0 5.393,0.869 7.741,3.174 l -3.349,3.522 c -1.262,-1.13 -2.827,-1.695 -4.306,-1.695 -3.565,0 -6.175,2.609 -6.175,6.349 0,4.088 2.783,6.263 6.088,6.263 1.696,0 3.392,-0.479 4.696,-1.783 l 3.568,3.479 z"
         id="path73"
         inkscape:connector-curvature="0"
         style="fill:#4870b7" /><path
         d="m 432.37,502.846 h 5.088 v 21.439 h -5.001 l -0.261,-3.131 c -1.218,2.522 -4.566,3.739 -6.958,3.783 -6.35,0.043 -11.046,-3.87 -11.046,-11.394 0,-7.394 4.914,-11.264 11.176,-11.22 2.87,0 5.61,1.348 6.828,3.479 l 0.174,-2.956 z m -12.872,10.698 c 0,4.088 2.826,6.522 6.349,6.522 8.35,0 8.35,-13.002 0,-13.002 -3.523,0 -6.349,2.392 -6.349,6.48 z"
         id="path75"
         inkscape:connector-curvature="0"
         style="fill:#4870b7" /></g></g><g
     id="g77"
     transform="translate(-130.35601,-146.812)"><g
       id="g79"><path
         d="m 320.396,367.84 c 0,-14.68 21.92,-14.68 21.92,0 v 3.62 c 0,14.68 -21.92,14.68 -21.92,0 v -3.62 z m 5.766,3.754 c 0,7.105 10.256,7.105 10.256,0 v -3.687 c 0,-6.972 -10.256,-7.105 -10.256,0 v 3.687 z"
         id="path81"
         inkscape:connector-curvature="0"
         style="fill:#4870b7" /></g></g><text
     id="text83"
     x="108.67918"
     y="264.38672"
     style="font-size:12px"><tspan
       x="108.67918"
       y="264.38672"
       font-size="81.5396"
       letter-spacing="-3"
       id="tspan85"
       style="font-size:81.53959656px;letter-spacing:-3;fill:#4870b7;font-family:NexaBold">1</tspan><tspan
       x="135.50519"
       y="264.38672"
       font-size="81.5396"
       id="tspan87"
       style="font-size:81.53959656px;fill:#4870b7;font-family:NexaBold">5</tspan></text>
</svg>