<?xml version="1.0" encoding="utf-8"?>
<!-- Generator: Adobe Illustrator 16.0.0, SVG Export Plug-In . SVG Version: 6.00 Build 0)  -->
<!DOCTYPE svg PUBLIC "-//W3C//DTD SVG 1.1//EN" "http://www.w3.org/Graphics/SVG/1.1/DTD/svg11.dtd">
<svg version="1.1" id="Layer_1" xmlns="http://www.w3.org/2000/svg" xmlns:xlink="http://www.w3.org/1999/xlink" x="0px" y="0px"
	 width="40px" height="40px" viewBox="-3.222 1.927 40 40" enable-background="new -3.222 1.927 40 40" xml:space="preserve">
<g>
	<g>
		<polygon fill="#6E6F71" points="19.31,39.249 16.808,41.859 14.2,39.359 		"/>
		<polygon fill="#BCBDC0" points="20.494,38.513 13.087,38.532 12.099,36.241 21.471,36.22 		"/>
		<polygon fill="#BCBDC0" points="21.712,34.54 11.603,34.568 10.614,32.279 22.687,32.245 		"/>
		<polygon fill="#F47421" points="30.011,16.04 24.58,29.445 21.043,29.523 27.628,13.216 		"/>
		<polygon fill="#6E6F71" points="21.429,36.22 15.537,36.236 11.603,34.568 17.005,34.554 		"/>
		<polygon fill="#FCB017" points="31.411,13.052 24.164,3.065 21.666,5.01 29.798,16.585 		"/>
		<polygon fill="#F47421" points="11.276,1.996 23.383,2 25.769,5.276 9.135,5.275 		"/>
		<polygon fill="#FCB017" points="2.762,12.395 10.043,1.999 14.1,1.997 12.463,5.274 11.39,5.275 4.228,16.026 		"/>
		<polygon fill="#F47421" points="2.144,13.269 8.156,28.159 11.678,28.204 4.381,10.08 		"/>
		<polygon fill="#E44325" points="23.908,31.099 9.419,31.138 8.036,27.863 25.24,27.816 		"/>
	</g>
</g>
</svg>
